# xmcd
#
# Track frame offsets:
#   150
#   11659
#   25636
#   36986
#   46508
#   58891
#   72668
#   85078
#   100454
#   113266
#   127334
#   140880
#
# Disc length: 2015 seconds
#
# Revision: 0
# Processed by: cddbd v1.4PL0 Copyright (c) Steve Scherf et al.
# Submitted via: uFREEDB 1.6.0
#
DISCID=a707dd0c
DTITLE=Martin, Dean - Rides Again
DYEAR=1963
DGENRE=Country
TTITLE0=I'm Gonna Change Everything
TTITLE1=Candy Kisses
TTITLE2=Rocking Alone (In An Old Rocking Chair)
TTITLE3=Just A Little Lovin'
TTITLE4=I Can't Help It (If I'm Still In Love With You)
TTITLE5=My Sugar's Gone
TTITLE6=Corrine, Corrina
TTITLE7=Take Good Care Of Her
TTITLE8=The Middle Of The Night Is My Crying Time
TTITLE9=From Lover To Loser
TTITLE10=Bouquet Of Roses
TTITLE11=Second Hand Love
EXTD=
EXTT0=
EXTT1=
EXTT2=
EXTT3=
EXTT4=
EXTT5=
EXTT6=
EXTT7=
EXTT8=
EXTT9=
EXTT10=
EXTT11=
PLAYORDER=
